<?xml version="1.0" encoding="UTF-8"?>
<svg width="22px" height="25px" viewBox="0 0 22 25" version="1.1" xmlns="http://www.w3.org/2000/svg" xmlns:xlink="http://www.w3.org/1999/xlink">
    <g id="Symbols" stroke="none" stroke-width="1" fill="none" fill-rule="evenodd">
        <g id="icons/reload/active" transform="translate(-5.000000, -4.000000)" fill-rule="nonzero">
            <g>
                <rect id="Rectangle" x="0" y="0" width="32" height="32"/>
                <path d="M6,21.9381945 L7.76629301,21 C9.48996241,24.2450681 12.8633597,26.3163636 16.6041316,26.3163636 C20.2453954,26.3163636 23.5426319,24.3544813 25.307754,21.2443762 L27.0471433,22.2315564 C24.9302322,25.9615059 20.9725418,28.3163636 16.6041316,28.3163636 C12.1161838,28.3163636 8.06739005,25.8303687 6,21.9381945 Z"
                      id="Oval" fill="#CCCCCC"
                      transform="translate(16.523572, 24.658182) scale(-1, 1) translate(-16.523572, -24.658182) "/>
                <polygon id="Path-14-Copy" fill="#CCCCCC"
                         transform="translate(8.500000, 23.504113) rotate(-180.000000) translate(-8.500000, -23.504113) "
                         points="10 20 12 20 12 27.0082262 5 27.0082262 5 25.0082262 10 25.0082262"/>
                <path d="M5,5.0569821 L6.76629301,4.11878755 C8.48996241,7.36385566 11.8633597,9.43515117 15.6041316,9.43515117 C19.3928334,9.43515117 22.802491,7.3101203 24.5040458,4 L26.2827946,4.91435908 C24.2418293,8.88475185 20.1496589,11.4351512 15.6041316,11.4351512 C11.1161838,11.4351512 7.06739005,8.94915629 5,5.0569821 Z"
                      id="Oval-Copy-3" fill="#CCCCCC"
                      transform="translate(15.641397, 7.717576) scale(1, -1) translate(-15.641397, -7.717576)"/>
                <polygon id="Path-14" fill="#CCCCCC"
                         points="25 5 27 5 27 12.0082262 20 12.0082262 20 10.0082262 25 10.0082262"/>
            </g>
        </g>
    </g>
</svg>